<svg xmlns="http://www.w3.org/2000/svg" width="1512" height="320" viewBox="0 0 1512 320" version="1.1">
	<path d="M 191.001 81.123 C 189.626 81.672, 187.488 83.072, 186.251 84.234 C 184.164 86.195, 184 87.205, 184 98.115 L 184 109.881 157.250 110.190 C 127.501 110.535, 125.765 110.878, 117.640 118.011 C 109.744 124.944, 110 122.976, 110 176.812 L 110 224.704 112.269 228.071 C 115.360 232.657, 122.338 236.762, 129.199 238.030 C 132.923 238.718, 157.352 238.981, 199.699 238.791 C 271.148 238.470, 267.621 238.783, 275.258 232.078 C 282.102 226.070, 282.113 225.965, 281.790 174.500 C 281.533 133.678, 281.311 128.155, 279.822 125.439 C 277.173 120.607, 271.967 115.968, 266 113.123 C 260.561 110.529, 260.209 110.497, 234.250 110.189 L 208 109.879 208 99.487 C 208 87.360, 207.019 84.560, 201.843 81.920 C 197.716 79.814, 194.817 79.601, 191.001 81.123 M 395 161.473 L 395 229 406 229 L 417 229 417 181.917 C 417 146.974, 417.295 134.932, 418.146 135.215 C 418.776 135.425, 421.431 140.975, 424.046 147.549 C 426.661 154.122, 435.033 175.145, 442.650 194.267 L 456.500 229.034 464.948 228.767 L 473.396 228.500 486.836 195 C 494.227 176.575, 502.613 155.650, 505.471 148.500 C 508.329 141.350, 511.079 135.612, 511.583 135.750 C 512.117 135.895, 512.608 155.407, 512.760 182.500 L 513.020 229 524.010 229 L 535 229 535 161.473 L 535 93.947 520.441 94.223 L 505.882 94.500 493.053 126 C 485.997 143.325, 477.071 165.375, 473.218 175 C 469.365 184.625, 465.679 192.500, 465.026 192.500 C 464.373 192.500, 460.858 185.075, 457.214 176 C 453.571 166.925, 444.643 144.875, 437.374 127 L 424.158 94.500 409.579 94.223 L 395 93.947 395 161.473 M 739 119 C 739 133.520, 738.615 144, 738.082 144 C 737.576 144, 736.209 142.456, 735.043 140.570 C 729.397 131.434, 720.292 126.685, 708.517 126.733 C 690.817 126.806, 677.758 136.410, 671.177 154.194 C 668.310 161.941, 666.708 175.767, 667.553 185.466 C 669.358 206.197, 677.071 219.488, 691.371 226.512 C 707.928 234.644, 723.572 231.498, 733.835 217.971 C 735.700 215.512, 737.626 213.350, 738.113 213.167 C 738.601 212.983, 739 216.471, 739 220.917 L 739 229 750.500 229 L 762 229 762 161.500 L 762 94 750.500 94 L 739 94 739 119 M 827.138 96.250 C 826.691 97.487, 821.462 112.450, 815.518 129.500 C 809.575 146.550, 799.376 175.725, 792.856 194.332 C 786.335 212.940, 781 228.353, 781 228.582 C 781 228.812, 786.587 229, 793.417 229 L 805.833 229 811.250 212.750 L 816.667 196.500 842.583 196.500 L 868.500 196.500 874 212.746 L 879.500 228.991 892.095 228.996 L 904.690 229 892.728 194.750 C 886.148 175.912, 875.530 145.539, 869.132 127.254 L 857.500 94.007 842.725 94.004 C 828.309 94, 827.931 94.055, 827.138 96.250 M 923 161.500 L 923 229 935 229 L 947 229 947 161.500 L 947 94 935 94 L 923 94 923 161.500 M 841.099 123.250 C 837.914 131.659, 823.825 176.158, 824.221 176.555 C 824.491 176.824, 833.036 176.923, 843.210 176.773 L 861.707 176.500 852.670 148.750 C 847.700 133.488, 843.255 121, 842.792 121 C 842.329 121, 841.567 122.013, 841.099 123.250 M 597.387 126.989 C 590.813 127.965, 583.303 130.482, 579.522 132.975 C 570.109 139.183, 562.691 149.886, 559.405 162 C 557.251 169.941, 556.997 187.113, 558.916 195 C 565.399 221.645, 589.967 235.741, 619.144 229.557 C 627.658 227.753, 633.053 224.966, 639.242 219.177 C 644.171 214.566, 649.467 205.908, 648.726 203.671 C 648.500 202.989, 644.194 202.032, 638.419 201.381 C 629.589 200.385, 628.390 200.439, 627.500 201.881 C 625.120 205.735, 619.053 210.668, 615.315 211.787 C 605.547 214.714, 592.990 212.062, 587.299 205.870 C 584.301 202.608, 581.119 195.145, 580.357 189.591 L 579.728 185 614.864 185 L 650 185 650 175.947 C 650 157.606, 644.517 144.490, 633.241 135.861 C 623.704 128.563, 609.859 125.137, 597.387 126.989 M 1003.500 127.043 C 993.064 128.415, 986.129 131.609, 979.974 137.874 C 973.657 144.306, 972 148.522, 972 158.170 C 972 174.015, 981.472 182.077, 1005.968 187.083 C 1021.690 190.296, 1025.562 191.690, 1028.518 195.204 C 1030.726 197.828, 1031.117 199.091, 1030.695 202.240 C 1030.066 206.929, 1028.786 208.559, 1023.689 211.159 C 1011.811 217.218, 994.911 212.463, 992.372 202.347 C 991.789 200.022, 991.422 199.886, 987.122 200.400 C 984.580 200.704, 979.439 201.243, 975.697 201.598 L 968.895 202.244 969.545 205.372 C 971.100 212.847, 978.633 221.731, 987.061 226.031 C 996.266 230.727, 1012.517 232.234, 1025.131 229.560 C 1043.376 225.693, 1054.330 214.169, 1054.235 198.943 C 1054.141 184.031, 1045.473 176.455, 1022.831 171.493 C 998.585 166.180, 995 164.127, 995 155.560 C 995 149.999, 998.336 146.540, 1005.789 144.373 C 1015.653 141.505, 1026.904 145.526, 1030.012 153.029 C 1031.242 155.999, 1031.552 156.147, 1035.409 155.617 C 1037.659 155.308, 1042.313 154.759, 1045.750 154.398 C 1053.064 153.630, 1053.310 153.022, 1049.443 145.261 C 1044.328 134.997, 1034.373 128.835, 1020.026 127.053 C 1015.366 126.474, 1011.091 126.057, 1010.526 126.127 C 1009.962 126.197, 1006.800 126.609, 1003.500 127.043 M 1104.552 127.118 C 1091.420 128.850, 1080.895 135.427, 1076.333 144.751 C 1074.026 149.468, 1073.579 151.635, 1073.671 157.668 C 1073.930 174.718, 1081.992 181.414, 1109.594 187.505 C 1118.847 189.547, 1126.221 191.734, 1127.910 192.936 C 1134.904 197.916, 1134.107 206.092, 1126.171 210.750 C 1122.108 213.136, 1120.459 213.488, 1113.500 213.454 C 1102.814 213.403, 1096.877 210.102, 1094.049 202.639 C 1093.036 199.965, 1092.689 199.815, 1088.733 200.347 C 1086.405 200.661, 1081.463 201.213, 1077.750 201.575 C 1069.935 202.337, 1069.738 202.747, 1073.395 210.602 C 1079.401 223.501, 1094.102 230.965, 1113.500 230.965 C 1138.590 230.965, 1155.962 217.859, 1155.990 198.907 C 1156.002 190.792, 1153.237 184.944, 1147.206 180.334 C 1141.688 176.115, 1134.789 173.651, 1118.459 170.063 C 1102.485 166.553, 1098.813 164.658, 1097.135 159.057 C 1094.458 150.120, 1101.547 143.640, 1114 143.640 C 1122.116 143.640, 1127.843 146.350, 1131.073 151.719 C 1132.324 153.799, 1133.425 155.619, 1133.520 155.763 C 1133.616 155.908, 1138.294 155.504, 1143.918 154.864 L 1154.142 153.701 1153.506 151.101 C 1152.219 145.842, 1147.172 138.400, 1142.401 134.727 C 1133.915 128.195, 1119.047 125.206, 1104.552 127.118 M 1330.222 127.470 C 1324.202 129.350, 1319.347 133.368, 1316.200 139.075 C 1314.715 141.768, 1313.162 143.978, 1312.750 143.986 C 1312.338 143.994, 1312 140.400, 1312 136 L 1312 128 1301 128 L 1290 128 1290 178.500 L 1290 229 1301.500 229 L 1313 229 1313.006 196.750 C 1313.009 178.116, 1313.438 162.964, 1314.021 160.863 C 1315.258 156.411, 1322.217 149.744, 1327.418 148.027 C 1329.575 147.315, 1334.315 146.949, 1338.583 147.164 L 1346 147.539 1346 137.376 C 1346 129.032, 1345.717 127.105, 1344.418 126.607 C 1341.829 125.613, 1334.799 126.040, 1330.222 127.470 M 1394.500 127.071 C 1382.952 128.601, 1374.715 132.972, 1367.119 141.602 C 1358.659 151.213, 1355.091 162.360, 1355.036 179.356 C 1354.978 197.009, 1358.853 207.983, 1368.577 217.708 C 1389.536 238.667, 1432.069 234.147, 1443.902 209.703 C 1445.165 207.094, 1445.972 204.368, 1445.695 203.646 C 1445.007 201.856, 1425.678 199.707, 1425.101 201.358 C 1424.001 204.503, 1416.142 210.885, 1411.983 212.010 C 1400.861 215.018, 1387.720 211.086, 1382.522 203.195 C 1380.344 199.889, 1377 189.651, 1377 186.290 C 1377 185.261, 1384.209 185, 1412.651 185 L 1448.302 185 1447.694 175.750 C 1446.908 163.790, 1445.394 156.791, 1442.144 150.091 C 1433.915 133.130, 1415.592 124.276, 1394.500 127.071 M 1177.196 166.750 L 1177.500 205.500 1180.101 211.046 C 1185.826 223.252, 1194.417 229.118, 1207.579 229.809 C 1218.556 230.385, 1225.244 228.384, 1231.678 222.600 C 1234.376 220.174, 1237.454 216.572, 1238.519 214.595 C 1239.584 212.618, 1240.802 211, 1241.227 211 C 1241.652 211, 1242 215.050, 1242 220 L 1242 229 1253 229 L 1264 229 1264 178.500 L 1264 128 1252.500 128 L 1241 128 1240.978 160.750 C 1240.953 197.447, 1240.785 198.470, 1233.743 204.653 C 1229.031 208.790, 1224.065 210.317, 1216.992 209.806 C 1210.122 209.309, 1205.306 206.176, 1202.391 200.306 C 1200.666 196.835, 1200.475 193.486, 1200.213 162.250 L 1199.925 128 1188.409 128 L 1176.892 128 1177.196 166.750 M 596.670 145.623 C 587.880 148.324, 582.751 154.997, 580.389 166.804 L 579.750 170 603.875 170 L 628 170 627.994 166.750 C 627.978 157.173, 621.444 148.100, 612.692 145.501 C 606.513 143.666, 602.952 143.693, 596.670 145.623 M 1395.994 144.875 C 1385.465 148.327, 1379.226 155.922, 1377.818 167 L 1377.500 169.500 1401.814 169.768 L 1426.128 170.036 1425.459 165.268 C 1424.476 158.253, 1420.104 151.009, 1414.894 147.761 C 1410.153 144.805, 1400.637 143.352, 1395.994 144.875 M 708.764 145.936 C 696.209 149.990, 690.183 162.582, 691.229 182.580 C 691.666 190.935, 692.160 192.995, 695.115 198.784 C 699.521 207.415, 704.327 210.947, 712.700 211.706 C 720.579 212.421, 725.267 210.786, 730.585 205.467 C 736.255 199.797, 739 191.210, 739 179.141 C 739 164.004, 734.579 152.993, 726.496 147.998 C 722.560 145.565, 713.262 144.484, 708.764 145.936 M 152.219 147.200 C 150.414 147.809, 147.601 149.829, 145.969 151.688 C 143.604 154.381, 143 155.999, 143 159.635 C 143 163.469, 143.530 164.730, 146.310 167.510 C 158.365 179.565, 179.592 168.367, 172.828 153.522 C 170.302 147.977, 159.623 144.701, 152.219 147.200 M 225.421 147.837 C 219.071 150.814, 216.706 154.472, 217.273 160.441 C 217.647 164.373, 218.374 165.945, 220.832 168.142 C 227.521 174.118, 238.588 173.965, 244.884 167.810 C 248.898 163.885, 249.505 157.226, 246.294 152.327 C 242.680 146.810, 232.352 144.588, 225.421 147.837 M 80.619 150.034 C 79.035 150.509, 76.672 151.899, 75.369 153.123 C 73.005 155.343, 73 155.404, 73 179.174 C 73 201.822, 73.101 203.101, 75.040 205.040 C 78.071 208.071, 81.361 209, 89.065 209 L 96 209 96 179 L 96 149 89.750 149.086 C 86.313 149.133, 82.204 149.560, 80.619 150.034 M 295 178.872 L 295 209 302.550 209 C 310.687 209, 314.793 207.561, 317.439 203.783 C 319.637 200.646, 319.752 159.355, 317.575 155.145 C 315.598 151.322, 311.784 149.801, 302.750 149.231 L 295 148.743 295 178.872 M 146 204.500 L 146 210 158.500 210 L 171 210 171 204.500 L 171 199 158.500 199 L 146 199 146 204.500 M 183 204.500 L 183 210 195.500 210 L 208 210 208 204.500 L 208 199 195.500 199 L 183 199 183 204.500 M 220 204.500 L 220 210.060 232.750 209.780 L 245.500 209.500 245.500 204.500 L 245.500 199.500 232.750 199.220 L 220 198.940 220 204.500" stroke="none" fill="#027bff" fill-rule="evenodd"/>
</svg>